<mxfile host="app.diagrams.net" modified="2023-12-29T23:14:43.985Z" agent="Mozilla/5.0 (X11; Linux x86_64) AppleWebKit/537.36 (KHTML, like Gecko) Chrome/120.0.0.0 Safari/537.36" etag="pP80X-RGVJhLrqje6gJf" version="22.1.16" type="device">
  <diagram name="Page-1" id="zUXiU8H8uNjzVAxh3Bj8">
    <mxGraphModel dx="1434" dy="758" grid="1" gridSize="10" guides="1" tooltips="1" connect="1" arrows="1" fold="1" page="1" pageScale="1" pageWidth="850" pageHeight="1100" math="0" shadow="0">
      <root>
        <mxCell id="0" />
        <mxCell id="1" parent="0" />
        <mxCell id="BmOVwQYbSp206XlL6Oty-1" value="&lt;b&gt;&lt;font style=&quot;font-size: 14px;&quot; color=&quot;#ff3030&quot;&gt;Client Application (Frontend)&lt;/font&gt;&lt;/b&gt;" style="rounded=0;whiteSpace=wrap;html=1;verticalAlign=top;fillColor=#dae8fc;strokeColor=#6c8ebf;" parent="1" vertex="1">
          <mxGeometry y="40" width="320" height="840" as="geometry" />
        </mxCell>
        <mxCell id="BmOVwQYbSp206XlL6Oty-2" value="&lt;b&gt;&lt;font style=&quot;font-size: 14px;&quot; color=&quot;#ff3030&quot;&gt;Server Application (Spring Boot Backend)&lt;/font&gt;&lt;/b&gt;" style="rounded=0;whiteSpace=wrap;html=1;verticalAlign=top;fillColor=#d5e8d4;strokeColor=#82b366;" parent="1" vertex="1">
          <mxGeometry x="350" y="40" width="490" height="840" as="geometry" />
        </mxCell>
        <mxCell id="BmOVwQYbSp206XlL6Oty-5" style="edgeStyle=orthogonalEdgeStyle;rounded=0;orthogonalLoop=1;jettySize=auto;html=1;entryX=0;entryY=0.5;entryDx=0;entryDy=0;" parent="1" source="BmOVwQYbSp206XlL6Oty-3" target="BmOVwQYbSp206XlL6Oty-4" edge="1">
          <mxGeometry relative="1" as="geometry" />
        </mxCell>
        <mxCell id="BmOVwQYbSp206XlL6Oty-3" value="Realm X user login form&lt;br&gt;example: username &amp;amp; password" style="rounded=0;whiteSpace=wrap;html=1;" parent="1" vertex="1">
          <mxGeometry x="20" y="90" width="280" height="60" as="geometry" />
        </mxCell>
        <mxCell id="BmOVwQYbSp206XlL6Oty-30" style="edgeStyle=orthogonalEdgeStyle;rounded=0;orthogonalLoop=1;jettySize=auto;html=1;" parent="1" source="BmOVwQYbSp206XlL6Oty-4" target="BmOVwQYbSp206XlL6Oty-8" edge="1">
          <mxGeometry relative="1" as="geometry" />
        </mxCell>
        <mxCell id="BmOVwQYbSp206XlL6Oty-4" value="&lt;b&gt;Realm X&amp;nbsp;authentication handler&lt;br&gt;&lt;/b&gt;&lt;div style=&quot;&quot;&gt;&lt;span style=&quot;background-color: initial;&quot;&gt;step: null&lt;/span&gt;&lt;/div&gt;&lt;div style=&quot;&quot;&gt;&lt;span style=&quot;background-color: initial;&quot;&gt;previousStepAuthenticaiton: null&lt;/span&gt;&lt;/div&gt;" style="rounded=0;whiteSpace=wrap;html=1;" parent="1" vertex="1">
          <mxGeometry x="370" y="90" width="450" height="60" as="geometry" />
        </mxCell>
        <mxCell id="BmOVwQYbSp206XlL6Oty-6" value="Realm X authenticated and have a &lt;br&gt;role named after the realm name" style="rounded=0;whiteSpace=wrap;html=1;" parent="1" vertex="1">
          <mxGeometry x="20" y="470" width="280" height="60" as="geometry" />
        </mxCell>
        <mxCell id="BmOVwQYbSp206XlL6Oty-12" style="edgeStyle=orthogonalEdgeStyle;rounded=0;orthogonalLoop=1;jettySize=auto;html=1;entryX=0.5;entryY=0;entryDx=0;entryDy=0;" parent="1" source="BmOVwQYbSp206XlL6Oty-8" target="BmOVwQYbSp206XlL6Oty-11" edge="1">
          <mxGeometry relative="1" as="geometry">
            <Array as="points">
              <mxPoint x="750" y="230" />
            </Array>
          </mxGeometry>
        </mxCell>
        <mxCell id="BmOVwQYbSp206XlL6Oty-22" value="yes" style="edgeLabel;html=1;align=center;verticalAlign=middle;resizable=0;points=[];" parent="BmOVwQYbSp206XlL6Oty-12" vertex="1" connectable="0">
          <mxGeometry x="-0.5333" relative="1" as="geometry">
            <mxPoint x="-6" as="offset" />
          </mxGeometry>
        </mxCell>
        <mxCell id="BmOVwQYbSp206XlL6Oty-36" style="edgeStyle=orthogonalEdgeStyle;rounded=0;orthogonalLoop=1;jettySize=auto;html=1;" parent="1" source="BmOVwQYbSp206XlL6Oty-8" target="BmOVwQYbSp206XlL6Oty-13" edge="1">
          <mxGeometry relative="1" as="geometry">
            <Array as="points">
              <mxPoint x="498" y="230" />
            </Array>
          </mxGeometry>
        </mxCell>
        <mxCell id="BmOVwQYbSp206XlL6Oty-37" value="no" style="edgeLabel;html=1;align=center;verticalAlign=middle;resizable=0;points=[];" parent="BmOVwQYbSp206XlL6Oty-36" vertex="1" connectable="0">
          <mxGeometry x="-0.7953" y="2" relative="1" as="geometry">
            <mxPoint x="-12" y="-2" as="offset" />
          </mxGeometry>
        </mxCell>
        <mxCell id="BmOVwQYbSp206XlL6Oty-8" value="success" style="rhombus;whiteSpace=wrap;html=1;fontStyle=1" parent="1" vertex="1">
          <mxGeometry x="555" y="190" width="80" height="80" as="geometry" />
        </mxCell>
        <mxCell id="BmOVwQYbSp206XlL6Oty-19" style="edgeStyle=orthogonalEdgeStyle;rounded=0;orthogonalLoop=1;jettySize=auto;html=1;" parent="1" source="BmOVwQYbSp206XlL6Oty-11" target="BmOVwQYbSp206XlL6Oty-15" edge="1">
          <mxGeometry relative="1" as="geometry">
            <Array as="points">
              <mxPoint x="680" y="340" />
              <mxPoint x="680" y="410" />
              <mxPoint x="488" y="410" />
            </Array>
          </mxGeometry>
        </mxCell>
        <mxCell id="BmOVwQYbSp206XlL6Oty-23" value="no" style="edgeLabel;html=1;align=center;verticalAlign=middle;resizable=0;points=[];" parent="BmOVwQYbSp206XlL6Oty-19" vertex="1" connectable="0">
          <mxGeometry x="-0.8453" relative="1" as="geometry">
            <mxPoint as="offset" />
          </mxGeometry>
        </mxCell>
        <mxCell id="BmOVwQYbSp206XlL6Oty-20" style="edgeStyle=orthogonalEdgeStyle;rounded=0;orthogonalLoop=1;jettySize=auto;html=1;" parent="1" source="BmOVwQYbSp206XlL6Oty-11" target="BmOVwQYbSp206XlL6Oty-14" edge="1">
          <mxGeometry relative="1" as="geometry">
            <Array as="points">
              <mxPoint x="820" y="340" />
              <mxPoint x="820" y="570" />
              <mxPoint x="488" y="570" />
            </Array>
          </mxGeometry>
        </mxCell>
        <mxCell id="BmOVwQYbSp206XlL6Oty-25" value="yes" style="edgeLabel;html=1;align=center;verticalAlign=middle;resizable=0;points=[];" parent="BmOVwQYbSp206XlL6Oty-20" vertex="1" connectable="0">
          <mxGeometry x="-0.9646" y="-1" relative="1" as="geometry">
            <mxPoint x="9" y="-1" as="offset" />
          </mxGeometry>
        </mxCell>
        <mxCell id="BmOVwQYbSp206XlL6Oty-11" value="has &lt;br&gt;next step" style="rhombus;whiteSpace=wrap;html=1;fontStyle=1" parent="1" vertex="1">
          <mxGeometry x="710" y="300" width="80" height="80" as="geometry" />
        </mxCell>
        <mxCell id="BmOVwQYbSp206XlL6Oty-27" style="edgeStyle=orthogonalEdgeStyle;rounded=0;orthogonalLoop=1;jettySize=auto;html=1;" parent="1" source="BmOVwQYbSp206XlL6Oty-13" target="BmOVwQYbSp206XlL6Oty-26" edge="1">
          <mxGeometry relative="1" as="geometry" />
        </mxCell>
        <mxCell id="BmOVwQYbSp206XlL6Oty-13" value="&lt;div&gt;&lt;b&gt;Throw&amp;nbsp;SecurityRealmAuthenticationException&lt;/b&gt;&lt;/div&gt;&lt;ul&gt;&lt;li&gt;HTTP status = 401&lt;/li&gt;&lt;li&gt;HTTP Header&amp;nbsp;X-Auth-Error-Code = code specified in the auth exception&lt;/li&gt;&lt;/ul&gt;" style="rounded=0;whiteSpace=wrap;html=1;align=left;" parent="1" vertex="1">
          <mxGeometry x="370" y="300" width="270" height="90" as="geometry" />
        </mxCell>
        <mxCell id="BmOVwQYbSp206XlL6Oty-29" style="edgeStyle=orthogonalEdgeStyle;rounded=0;orthogonalLoop=1;jettySize=auto;html=1;entryX=1;entryY=0.5;entryDx=0;entryDy=0;" parent="1" source="BmOVwQYbSp206XlL6Oty-14" target="BmOVwQYbSp206XlL6Oty-17" edge="1">
          <mxGeometry relative="1" as="geometry" />
        </mxCell>
        <mxCell id="BmOVwQYbSp206XlL6Oty-14" value="&lt;div&gt;&lt;b&gt;Return&amp;nbsp;SecurityRealmAuthentication&lt;/b&gt;&lt;/div&gt;&lt;ul&gt;&lt;li&gt;HTTP status = 200&lt;/li&gt;&lt;li&gt;HTTP Header X-Next-Auth-Step = step name specified in the auth object&lt;br&gt;&lt;/li&gt;&lt;/ul&gt;" style="rounded=0;whiteSpace=wrap;html=1;align=left;" parent="1" vertex="1">
          <mxGeometry x="370" y="600" width="270" height="90" as="geometry" />
        </mxCell>
        <mxCell id="BmOVwQYbSp206XlL6Oty-28" style="edgeStyle=orthogonalEdgeStyle;rounded=0;orthogonalLoop=1;jettySize=auto;html=1;" parent="1" source="BmOVwQYbSp206XlL6Oty-15" target="BmOVwQYbSp206XlL6Oty-6" edge="1">
          <mxGeometry relative="1" as="geometry" />
        </mxCell>
        <mxCell id="BmOVwQYbSp206XlL6Oty-15" value="&lt;div&gt;&lt;div style=&quot;border-color: var(--border-color);&quot;&gt;&lt;b style=&quot;border-color: var(--border-color);&quot;&gt;Return&amp;nbsp;SecurityRealmAuthentication&lt;/b&gt;&lt;/div&gt;&lt;ul style=&quot;border-color: var(--border-color);&quot;&gt;&lt;/ul&gt;&lt;/div&gt;&lt;ul&gt;&lt;li&gt;HTTP status = 200&lt;/li&gt;&lt;/ul&gt;" style="rounded=0;whiteSpace=wrap;html=1;align=left;" parent="1" vertex="1">
          <mxGeometry x="370" y="455" width="270" height="90" as="geometry" />
        </mxCell>
        <mxCell id="BmOVwQYbSp206XlL6Oty-42" style="edgeStyle=orthogonalEdgeStyle;rounded=0;orthogonalLoop=1;jettySize=auto;html=1;entryX=0;entryY=0.5;entryDx=0;entryDy=0;" parent="1" source="BmOVwQYbSp206XlL6Oty-17" target="BmOVwQYbSp206XlL6Oty-35" edge="1">
          <mxGeometry relative="1" as="geometry">
            <Array as="points">
              <mxPoint x="160" y="760" />
            </Array>
          </mxGeometry>
        </mxCell>
        <mxCell id="BmOVwQYbSp206XlL6Oty-17" value="Realm X Step # forrm&lt;br&gt;example: OTP" style="rounded=0;whiteSpace=wrap;html=1;" parent="1" vertex="1">
          <mxGeometry x="20" y="615" width="280" height="60" as="geometry" />
        </mxCell>
        <mxCell id="BmOVwQYbSp206XlL6Oty-26" value="Show error code" style="rounded=0;whiteSpace=wrap;html=1;" parent="1" vertex="1">
          <mxGeometry x="20" y="315" width="280" height="60" as="geometry" />
        </mxCell>
        <mxCell id="BmOVwQYbSp206XlL6Oty-43" style="edgeStyle=orthogonalEdgeStyle;rounded=0;orthogonalLoop=1;jettySize=auto;html=1;" parent="1" source="BmOVwQYbSp206XlL6Oty-35" target="BmOVwQYbSp206XlL6Oty-41" edge="1">
          <mxGeometry relative="1" as="geometry" />
        </mxCell>
        <mxCell id="BmOVwQYbSp206XlL6Oty-35" value="&lt;b&gt;Realm X&amp;nbsp;authentication handler&lt;br style=&quot;border-color: var(--border-color);&quot;&gt;&lt;/b&gt;&lt;div style=&quot;border-color: var(--border-color);&quot;&gt;step: step name&lt;/div&gt;&lt;div style=&quot;border-color: var(--border-color);&quot;&gt;&lt;span style=&quot;border-color: var(--border-color); background-color: initial;&quot;&gt;previousStepAuthenticaiton: populated object&lt;/span&gt;&lt;/div&gt;" style="rounded=0;whiteSpace=wrap;html=1;" parent="1" vertex="1">
          <mxGeometry x="370" y="730" width="450" height="60" as="geometry" />
        </mxCell>
        <mxCell id="BmOVwQYbSp206XlL6Oty-39" value="" style="rounded=0;whiteSpace=wrap;html=1;fillColor=#008a00;fontColor=#ffffff;strokeColor=#005700;" parent="1" vertex="1">
          <mxGeometry x="370" y="700" width="450" height="10" as="geometry" />
        </mxCell>
        <mxCell id="BmOVwQYbSp206XlL6Oty-41" value="&lt;h1 style=&quot;font-size: 15px;&quot;&gt;&lt;span style=&quot;font-weight: normal;&quot;&gt;Same process repeates again for each authentication step.....&lt;/span&gt;&lt;/h1&gt;" style="text;html=1;strokeColor=none;fillColor=none;spacing=5;spacingTop=-20;whiteSpace=wrap;overflow=hidden;rounded=0;fontSize=15;fontStyle=0;align=center;" parent="1" vertex="1">
          <mxGeometry x="370" y="833" width="450" height="47" as="geometry" />
        </mxCell>
      </root>
    </mxGraphModel>
  </diagram>
</mxfile>
